<?xml version="1.0" encoding="UTF-8" standalone="no"?>
<!DOCTYPE svg PUBLIC "-//W3C//DTD SVG 1.1//EN" "http://www.w3.org/Graphics/SVG/1.1/DTD/svg11.dtd">
<svg xmlns="http://www.w3.org/2000/svg" version="1.1" viewBox="0.00 0.00 525.00 331.00">
<path fill="#000000" d="
  M 414.25 272.91
  Q 346.90 292.46 280.73 269.32
  Q 272.03 266.28 264.20 262.18
  A 2.36 2.34 45.8 0 0 262.11 262.14
  C 215.13 284.53 161.41 287.21 111.63 272.93
  Q 111.16 272.80 110.76 273.07
  L 29.59 328.83
  Q 28.97 329.26 29.08 328.52
  L 42.92 233.42
  A 1.04 1.02 -63.8 0 0 42.63 232.55
  C 34.41 224.47 26.72 215.40 20.76 205.73
  Q 1.61 174.68 2.43 137.97
  C 3.06 110.19 15.30 82.68 33.40 61.86
  C 60.12 31.15 98.23 12.10 138.28 5.65
  C 181.28 -1.28 224.01 4.59 262.36 23.90
  A 1.56 1.54 44.6 0 0 263.77 23.90
  C 301.55 4.69 344.20 -1.13 386.46 5.42
  C 437.74 13.37 486.58 42.07 510.80 88.96
  C 520.81 108.35 525.19 130.45 523.13 152.23
  Q 519.27 192.92 491.57 223.85
  Q 487.56 228.33 483.32 232.65
  Q 482.97 233.00 483.05 233.49
  L 496.88 328.53
  Q 496.98 329.23 496.40 328.83
  L 415.21 273.06
  Q 414.76 272.76 414.25 272.91
  Z
  M 73.44 222.55
  L 66.60 268.20
  Q 66.52 268.74 66.97 268.43
  L 106.59 241.29
  Q 107.06 240.97 107.60 241.18
  Q 139.33 253.45 172.76 253.38
  Q 203.23 253.31 232.97 243.50
  Q 233.36 243.37 233.03 243.12
  Q 188.00 207.64 183.99 151.22
  Q 183.27 140.98 184.27 131.26
  Q 188.18 93.59 212.74 64.23
  Q 222.31 52.80 234.31 42.94
  Q 234.70 42.62 234.23 42.45
  Q 180.81 23.15 126.52 37.31
  C 92.53 46.18 59.59 67.17 42.29 98.53
  Q 25.51 128.93 33.36 163.14
  C 38.64 186.20 54.52 207.20 73.06 221.59
  Q 73.53 221.96 73.44 222.55
  Z
  M 452.99 221.49
  C 471.57 207.14 487.20 186.35 492.61 163.33
  C 498.59 137.92 493.74 112.41 479.06 90.86
  C 451.62 50.58 401.25 31.18 353.50 31.40
  Q 321.66 31.55 291.81 42.42
  Q 291.35 42.58 291.72 42.89
  Q 304.39 53.44 314.25 65.48
  Q 338.83 95.50 341.95 133.76
  Q 342.74 143.51 341.83 153.71
  Q 336.92 208.56 293.00 243.09
  Q 292.67 243.34 293.06 243.47
  Q 356.37 264.39 418.78 241.21
  Q 419.28 241.02 419.71 241.32
  L 459.06 268.45
  Q 459.53 268.78 459.45 268.21
  L 452.59 222.49
  A 1.08 1.06 67.1 0 1 452.99 221.49
  Z
  M 258.29 60.20
  Q 258.05 60.24 257.93 60.36
  Q 257.75 60.55 258.01 60.55
  L 267.39 60.50
  Q 267.96 60.49 267.50 60.17
  L 263.48 57.30
  Q 263.03 56.98 262.57 57.30
  L 258.71 60.03
  Q 258.52 60.16 258.29 60.20
  Z
  M 299.74 94.75
  A 0.32 0.32 0.0 0 0 300.00 94.26
  L 296.57 88.90
  A 0.32 0.32 0.0 0 0 296.30 88.75
  L 229.73 88.75
  A 0.32 0.32 0.0 0 0 229.46 88.90
  L 226.05 94.26
  A 0.32 0.32 0.0 0 0 226.32 94.75
  L 299.74 94.75
  Z
  M 214.49 123.25
  A 0.31 0.31 0.0 0 0 214.19 123.49
  L 212.94 128.62
  A 0.31 0.31 0.0 0 0 213.24 129.00
  L 312.57 129.00
  A 0.31 0.31 0.0 0 0 312.87 128.63
  L 311.77 123.50
  A 0.31 0.31 0.0 0 0 311.47 123.25
  L 214.49 123.25
  Z
  M 311.48 163.48
  A 0.31 0.31 0.0 0 0 311.78 163.22
  L 312.63 157.85
  A 0.31 0.31 0.0 0 0 312.33 157.49
  L 213.56 157.51
  A 0.31 0.31 0.0 0 0 213.26 157.87
  L 214.20 163.19
  A 0.31 0.31 0.0 0 0 214.51 163.45
  L 311.48 163.48
  Z
  M 225.09 191.86
  L 228.48 197.31
  A 0.93 0.92 -15.6 0 0 229.27 197.75
  L 296.71 197.75
  A 1.07 1.06 15.6 0 0 297.62 197.24
  L 300.88 191.96
  Q 301.01 191.75 300.76 191.75
  L 225.15 191.75
  Q 225.02 191.75 225.09 191.86
  Z
  M 258.38 226.59
  L 262.67 229.19
  A 0.77 0.76 -45.4 0 0 263.47 229.18
  L 267.49 226.70
  A 0.24 0.24 0.0 0 0 267.37 226.25
  L 258.49 226.23
  Q 257.78 226.23 258.38 226.59
  Z"
/>
</svg>
